<svg width="374" height="374" viewBox="0 0 374 374" fill="none" xmlns="http://www.w3.org/2000/svg">
<path d="M228.639 45.428C229.087 43.9145 230.679 43.0486 232.184 43.5257C267.5 54.7238 297.472 78.591 316.288 110.584C335.588 143.399 341.714 182.317 333.426 219.474C325.139 256.631 303.057 289.257 271.642 310.762C240.227 332.266 201.821 341.044 164.183 335.324C126.546 329.603 92.4823 309.81 68.8752 279.943C45.2682 250.076 33.8775 212.362 37.0045 174.421C40.1315 136.479 57.5431 101.139 85.7215 75.54C113.194 50.5825 148.903 36.6982 185.952 36.4988C187.53 36.4903 188.793 37.7902 188.772 39.3687C188.75 40.9471 187.453 42.2063 185.874 42.216C150.274 42.4343 115.966 55.7876 89.5654 79.7713C62.459 104.396 45.7098 138.392 42.7017 174.89C39.6937 211.388 50.651 247.667 73.36 276.398C96.069 305.129 128.837 324.169 165.042 329.672C201.248 335.175 238.193 326.73 268.413 306.044C298.633 285.358 319.875 253.973 327.847 218.229C335.819 182.486 329.927 145.049 311.361 113.482C293.279 82.7375 264.487 59.7936 230.56 49.0077C229.055 48.5295 228.19 46.9416 228.639 45.428Z" fill="#5285F2"/>
<path d="M138.995 269.5C138.484 270.386 137.349 270.691 136.473 270.162C115.91 257.764 100.632 238.189 93.6127 215.18C86.4132 191.581 88.4395 166.128 99.2825 143.965C110.125 121.802 128.976 104.58 152.027 95.7796C175.078 86.9792 200.609 87.256 223.464 96.5541C246.318 105.852 264.792 123.478 275.151 145.872C285.511 168.265 286.985 193.755 279.276 217.193C271.566 240.631 255.248 260.27 233.618 272.14C212.529 283.713 187.925 287.062 164.546 281.584C163.55 281.35 162.951 280.34 163.203 279.349C163.455 278.357 164.464 277.76 165.46 277.993C187.929 283.24 211.57 280.014 231.835 268.892C252.643 257.473 268.34 238.582 275.756 216.036C283.173 193.489 281.755 168.968 271.789 147.427C261.823 125.886 244.053 108.93 222.068 99.9859C200.083 91.0415 175.522 90.7753 153.349 99.2409C131.175 107.706 113.041 124.273 102.61 145.593C92.18 166.913 90.2308 191.397 97.1564 214.099C103.902 236.21 118.576 255.024 138.326 266.953C139.202 267.482 139.507 268.614 138.995 269.5Z" fill="#5285F2"/>
</svg>
