<svg width="180" height="40" viewBox="0 0 180 40" fill="none" xmlns="http://www.w3.org/2000/svg">
<g clip-path="url(#clip0)">
<path d="M70.4203 12.5984C71.5246 13.2659 72.459 14.1838 73.0535 15.4354C73.7331 16.687 74.0729 18.189 74.0729 19.8577C74.0729 21.5265 73.7331 22.9451 72.9686 24.1966C72.2891 25.4482 71.2697 26.3661 69.9955 26.9501C68.7214 27.6177 67.1923 27.9515 65.5784 27.9515C64.644 27.9515 63.7944 27.7845 62.9451 27.4509C62.0955 27.2006 61.331 26.6998 60.7364 26.1158V34.7936H55.8096V11.9309H60.0568L60.4817 13.7666C62.3504 12.2646 64.3891 11.5137 66.5127 11.5137C67.9568 11.5137 69.3159 11.8474 70.4203 12.5984ZM67.7021 22.9451C68.5514 22.1941 68.9761 21.1927 68.9761 19.9412C68.9761 18.6896 68.5514 17.6883 67.787 16.8539C67.0225 16.0195 66.0031 15.6857 64.8989 15.6857C63.9644 15.6857 63.1149 15.8526 62.4353 16.2698C61.7557 16.6035 61.2461 17.1876 60.8215 17.9387V21.6933C61.0762 22.4445 61.5859 23.0284 62.1806 23.4457C62.8602 23.8628 63.6246 24.1131 64.5591 24.1131C65.8332 24.1131 66.8525 23.696 67.7021 22.9451Z" fill="white"/>
<path d="M76.9607 15.5172C77.7254 14.349 78.7445 13.3477 80.1037 12.6802C81.4628 12.0127 82.9919 11.5955 84.6909 11.5955C86.3898 11.5955 87.9187 11.9292 89.2779 12.6802C90.5521 13.3477 91.5715 14.349 92.3359 15.6006C93.1004 16.8522 93.4402 18.1873 93.4402 19.7727C93.4402 21.358 93.1004 22.6931 92.3359 23.9447C91.5715 25.1962 90.637 26.1975 89.2779 26.8651C88.0036 27.5325 86.3898 27.9498 84.6909 27.9498C82.9919 27.9498 81.4628 27.616 80.1037 26.9486C78.7445 26.281 77.7254 25.3632 76.9607 24.1115C76.2811 22.8599 75.8564 21.4414 75.8564 19.7727C75.8564 18.1873 76.2811 16.7688 76.9607 15.5172ZM81.9726 22.7764C82.6522 23.6108 83.5866 23.9447 84.6909 23.9447C85.7951 23.9447 86.7296 23.5275 87.4091 22.7764C88.0887 22.0255 88.4285 20.9407 88.4285 19.7727C88.4285 18.5211 88.0887 17.5197 87.4091 16.7688C86.6445 15.9344 85.7951 15.5172 84.606 15.5172C83.5015 15.5172 82.6521 15.9344 81.8877 16.6853C81.2081 17.5197 80.8683 18.5211 80.8683 19.7727C80.8683 20.9407 81.2081 21.9422 81.9726 22.7764Z" fill="white"/>
<path d="M101.426 0.081543V27.5335H96.4991V0.081543H101.426Z" fill="white"/>
<path d="M121.642 12.3469L111.619 34.8758H106.862L110.599 26.7822L103.464 12.3469H109.071L113.148 21.3584L117.225 12.3469H121.642Z" fill="white"/>
<path d="M140.5 12.3464V27.5325C140.5 28.9511 140.075 30.2861 139.225 31.4544C138.376 32.6224 137.272 33.5404 135.828 34.2078C134.383 34.8754 132.855 35.2091 131.156 35.2091C129.881 35.2091 128.777 35.0423 127.843 34.7919C126.908 34.4581 126.144 34.1243 125.549 33.7907C124.87 33.3734 124.19 32.8728 123.425 32.2053L126.314 28.8676C126.993 29.5352 127.758 30.0358 128.437 30.3696C129.117 30.7033 130.051 30.9536 131.071 30.9536C132.345 30.9536 133.364 30.6199 134.214 30.0358C135.063 29.4517 135.488 28.534 135.488 27.4492V25.2797C134.978 26.0307 134.299 26.6983 133.279 27.1989C132.26 27.6995 131.071 27.9498 129.712 27.9498C128.352 27.9498 126.993 27.616 125.804 26.8651C124.615 26.1975 123.68 25.1962 122.916 23.9447C122.236 22.6931 121.812 21.358 121.812 19.8562C121.812 18.3541 122.151 16.9357 122.916 15.684C123.68 14.4324 124.615 13.4312 125.889 12.6802C127.078 11.9292 128.352 11.5955 129.712 11.5955C130.986 11.5955 132.09 11.7623 133.109 12.0961C134.129 12.4299 134.893 12.9305 135.403 13.5146L135.913 12.3464H140.5ZM135.488 21.6918V17.937C135.148 17.186 134.638 16.6019 133.874 16.1847C133.109 15.7675 132.26 15.5172 131.24 15.5172C130.051 15.5172 129.032 15.9344 128.182 16.6853C127.333 17.4363 126.908 18.4376 126.908 19.6892C126.908 20.8574 127.333 21.9422 128.182 22.7764C129.032 23.6108 130.051 24.0281 131.24 24.0281C133.194 23.9447 134.638 23.1937 135.488 21.6918Z" fill="white"/>
<path d="M144.579 15.5188C145.343 14.2672 146.362 13.3494 147.721 12.5984C149.081 11.9309 150.61 11.5137 152.309 11.5137C154.008 11.5137 155.537 11.8474 156.896 12.5984C158.17 13.2659 159.189 14.2672 159.954 15.5188C160.633 16.7704 161.058 18.1055 161.058 19.6908C161.058 21.2762 160.718 22.6113 159.954 23.8628C159.274 25.1144 158.255 26.1158 156.896 26.7833C155.621 27.4509 154.008 27.868 152.309 27.868C150.61 27.868 149.081 27.5342 147.721 26.8668C146.362 26.1991 145.343 25.2814 144.579 24.0298C143.814 22.7781 143.474 21.3597 143.474 19.6073C143.474 18.189 143.814 16.7704 144.579 15.5188ZM149.505 22.7781C150.185 23.6125 151.119 23.9463 152.224 23.9463C153.328 23.9463 154.262 23.529 154.942 22.7781C155.621 22.0271 155.961 20.9424 155.961 19.7743C155.961 18.5226 155.621 17.5214 154.942 16.7704C154.262 16.0195 153.328 15.6023 152.224 15.6023C151.119 15.6023 150.27 16.0195 149.505 16.7704C148.741 17.5214 148.401 18.6061 148.401 19.7743C148.486 20.9424 148.826 21.9437 149.505 22.7781Z" fill="white"/>
<path d="M178.472 12.8471C179.492 13.6815 179.916 14.7662 180 16.1013V27.5325H174.989V17.937C174.904 16.435 174.14 15.684 172.695 15.684C171.591 15.684 170.657 16.1847 169.977 17.2694C169.298 18.3541 168.958 19.6892 168.958 21.2745V27.5325H164.031V12.3464H168.533L168.873 14.7662C169.468 13.7649 170.232 13.014 171.251 12.4299C172.271 11.8458 173.46 11.5955 174.819 11.5955C176.263 11.5955 177.537 12.0127 178.472 12.8471Z" fill="white"/>
<path d="M34.7428 12.0979C33.8933 11.5973 32.789 11.5973 31.8547 12.0979L25.2288 15.9362L20.7267 18.4395L14.101 22.2776C13.2515 22.7783 12.1472 22.7783 11.2128 22.2776L5.94621 19.2737C5.09674 18.7731 4.50213 17.8553 4.50213 16.854V10.9297C4.50213 9.92846 5.01181 9.01062 5.94621 8.50998L11.1279 5.58956C11.9773 5.08892 13.0816 5.08892 14.016 5.58956L19.1978 8.50998C20.0471 9.01062 20.6418 9.92846 20.6418 10.9297V14.768L25.1439 12.1814V8.34311C25.1439 7.34181 24.6343 6.42396 23.6999 5.92332L14.101 0.416254C13.2515 -0.0843893 12.1472 -0.0843893 11.2128 0.416254L1.44408 5.92332C0.509674 6.42396 0 7.34181 0 8.34311V19.4407C0 20.442 0.509674 21.3599 1.44408 21.8605L11.2128 27.3676C12.0623 27.8682 13.1666 27.8682 14.101 27.3676L20.7267 23.6127L25.2288 21.0261L31.8547 17.2712C32.7041 16.7706 33.8084 16.7706 34.7428 17.2712L39.9245 20.1916C40.7739 20.6923 41.3685 21.6102 41.3685 22.6115V28.5356C41.3685 29.5371 40.8589 30.4548 39.9245 30.9554L34.7428 33.9594C33.8933 34.46 32.789 34.46 31.8547 33.9594L26.673 31.0389C25.8235 30.5383 25.2288 29.6204 25.2288 28.6191V24.7809L20.7267 27.3676V31.2057C20.7267 32.207 21.2365 33.1249 22.1708 33.6256L31.9396 39.1326C32.789 39.6332 33.8933 39.6332 34.8277 39.1326L44.5966 33.6256C45.446 33.1249 46.0406 32.207 46.0406 31.2057V20.1081C46.0406 19.1069 45.5309 18.1891 44.5966 17.6885L34.7428 12.0979Z" fill="#8247E5"/>
</g>
<defs>
<clipPath id="clip0">
<rect width="180" height="39.5508" fill="white"/>
</clipPath>
</defs>
</svg>
